<?xml version="1.0" standalone="no"?>
<!DOCTYPE svg PUBLIC "-//W3C//DTD SVG 20010904//EN"
 "http://www.w3.org/TR/2001/REC-SVG-20010904/DTD/svg10.dtd">
<svg version="1.0" xmlns="http://www.w3.org/2000/svg"
 width="535.000000pt" height="480.000000pt" viewBox="0 0 535.000000 480.000000"
 preserveAspectRatio="xMidYMid meet">

<g transform="translate(0.000000,480.000000) scale(0.100000,-0.100000)"
fill="#000000" stroke="none">
<path d="M1925 3831 c-72 -19 -140 -74 -178 -145 -18 -33 -22 -57 -21 -126 0
-101 18 -144 86 -207 110 -101 276 -96 383 12 61 60 80 107 80 195 0 59 -5 84
-23 120 -52 99 -126 149 -229 155 -37 2 -81 1 -98 -4z"/>
<path d="M3215 3551 c-48 -12 -113 -58 -145 -103 -101 -138 -61 -326 88 -415
42 -25 56 -28 137 -28 77 0 96 3 130 24 105 63 148 137 148 251 0 57 -5 85
-21 116 -54 105 -129 156 -237 160 -38 2 -83 0 -100 -5z"/>
<path d="M1239 3353 c37 -65 119 -206 181 -313 177 -305 259 -448 287 -498 14
-26 29 -51 33 -57 4 -5 19 -30 32 -55 24 -44 80 -141 318 -550 62 -107 121
-208 130 -225 71 -125 261 -454 326 -565 l79 -135 3 612 c1 337 1 888 0 1224
l-3 611 -39 -56 c-83 -121 -189 -207 -321 -261 -67 -28 -76 -29 -230 -29 -151
1 -165 2 -250 31 -115 39 -255 109 -356 178 -83 58 -104 74 -178 140 -26 22
-54 46 -63 54 -9 7 14 -41 51 -106z"/>
<path d="M4125 3123 c-136 -125 -356 -256 -521 -312 -134 -45 -344 -53 -457
-17 -50 16 -134 56 -170 81 -43 30 -147 139 -184 193 l-38 54 -3 -611 c-1
-336 -1 -887 0 -1224 l3 -612 24 40 c13 22 84 146 159 275 163 284 206 358
352 610 62 107 155 267 205 355 88 154 161 281 323 560 197 339 257 443 275
475 11 19 39 70 64 113 24 44 43 80 41 82 -2 1 -34 -26 -73 -62z"/>
</g>
</svg>
