<?xml version="1.0" encoding="UTF-8"?>
<svg version="1.1" xmlns="http://www.w3.org/2000/svg" width="368" height="368">
<path d="M0 0 C3 0.25 3 0.25 5 2.25 C4.75 5.8125 4.75 5.8125 4 9.25 C3.34 9.58 2.68 9.91 2 10.25 C1.92564264 12.24872585 1.91666667 14.25 1.9375 16.25 C1.63557043 21.95521091 0.52455996 24.55845844 -3.5625 28.5625 C-5.01421303 29.82397295 -6.48487154 31.06544503 -8 32.25 C-6.1630008 38.11832182 -6.1630008 38.11832182 -3.79296875 43.78125 C-0.20865366 51.31805756 1.01855604 58.55495828 1.92382812 66.77636719 C2.541398 72.11735056 3.32630554 76.53651516 6 81.25 C7.88966389 82.31543143 7.88966389 82.31543143 10 82.375 C12.88527503 82.6482268 13.71182052 82.90268758 15.59790039 85.17578125 C17.57923584 89.52002224 17.40287487 93.39679528 17.37109375 98.1171875 C17.38847696 100.07422049 17.40606133 102.0312517 17.42382812 103.98828125 C17.43389243 107.05813906 17.4374984 110.12788029 17.43579102 113.19775391 C17.43937239 116.17124775 17.4667571 119.14385259 17.49609375 122.1171875 C17.48791122 123.02781952 17.4797287 123.93845154 17.47129822 124.87667847 C17.54056557 130.8418728 18.61252886 134.31688749 22 139.25 C21.9175 138.156875 21.835 137.06375 21.75 135.9375 C21.72679398 129.41660893 24.55562919 123.58120733 27.109375 117.69140625 C30.85621715 107.42045739 25.93181649 95.26670855 22.24609375 85.54296875 C18.64924408 76.00957108 16.17222376 67.36265234 15.61865234 57.13598633 C15.12609734 48.57000696 13.24794698 41.35264589 7 35.25 C3.85011127 33.38076797 3.85011127 33.38076797 1 32.25 C1.33 31.59 1.66 30.93 2 30.25 C10.85494313 32.10668162 15.73744022 37.07192678 21 44.25 C21.70757446 45.51577881 21.70757446 45.51577881 22.42944336 46.80712891 C25.53463208 52.18793622 25.53463208 52.18793622 30.74121094 55.21313477 C33.99246733 55.60099211 37.04134257 55.63495272 40.3125 55.5 C41.43446777 55.48066406 42.55643555 55.46132812 43.71240234 55.44140625 C50.54129015 55.08098995 54.45886237 54.32977659 59.125 49.25 C59.74632812 48.321875 60.36765625 47.39375 61.0078125 46.4375 C63 44.25 63 44.25 66.7421875 43.9375 C67.81726563 44.040625 68.89234375 44.14375 70 44.25 C70.66 42.93 71.32 41.61 72 40.25 C74.31 40.58 76.62 40.91 79 41.25 C79.625 44.0625 79.625 44.0625 80 47.25 C79.34 48.24 78.68 49.23 78 50.25 C75 50.5625 75 50.5625 72 50.25 C71.34 49.59 70.68 48.93 70 48.25 C67.08238621 47.67142243 67.08238621 47.67142243 64 48.25 C61.93238524 50.42608132 61.93238524 50.42608132 60.0625 53.1875 C55.44411218 58.26414646 51.86806733 58.93642176 45.08374023 59.31079102 C40.38394219 59.40483704 35.69821336 59.41095405 31 59.25 C31.20496094 59.83007812 31.40992188 60.41015625 31.62109375 61.0078125 C34.45224834 69.21680619 35.11826079 76.35513598 35 85 C34.97455493 86.89056856 34.95350005 88.78120292 34.9375 90.671875 C34.92009766 91.91855957 34.92009766 91.91855957 34.90234375 93.19042969 C34.86396723 95.31489221 34.86396723 95.31489221 36 97.25 C36.19971553 100.51571869 36.34481895 103.77445168 36.4296875 107.04492188 C36.70397037 113.16485837 37.98566811 118.00545875 42.1875 122.6875 C42.785625 123.203125 43.38375 123.71875 44 124.25 C45.59010464 121.06979073 44.81311017 117.71261526 44.5625 114.25 C42.41422542 80.04711627 42.41422542 80.04711627 53 67.25 C55.57427336 64.4780512 58.22997028 61.8257679 61 59.25 C61.77616561 61.57849684 62.04805138 63.02122866 61.53833008 65.44799805 C60.89337541 68.80497976 60.8547365 71.97588483 60.82421875 75.39453125 C60.80097553 76.80925893 60.77685653 78.22397244 60.75195312 79.63867188 C60.71728399 81.83204021 60.68773417 84.02490061 60.67407227 86.21850586 C60.60236874 95.8830386 59.54684051 104.54594341 56.89355469 113.85375977 C54.41001562 123.29324393 56.7468189 131.94221617 59 141.25 C60.09129245 140.06981013 61.17257507 138.88036331 62.25 137.6875 C63.15492188 136.69556641 63.15492188 136.69556641 64.078125 135.68359375 C68.76554681 129.74809825 70.58549285 124.6875994 71.875 117.375 C73.36103214 110.13477776 74.98857456 104.85318047 80 99.25 C80.53077148 98.64961914 81.06154297 98.04923828 81.60839844 97.43066406 C84.67583089 93.98165288 87.78393777 90.57068091 90.953125 87.21484375 C91.49098633 86.6437085 92.02884766 86.07257324 92.58300781 85.48413086 C94 84.25 94 84.25 96 84.25 C95.690625 85.013125 95.38125 85.77625 95.0625 86.5625 C93.59098062 90.28457843 92.89151686 92.98301046 93.0078125 96.9609375 C93.02457031 97.87617188 93.04132813 98.79140625 93.05859375 99.734375 C93.1026897 101.65384596 93.15471049 103.57315201 93.21484375 105.4921875 C93.35137562 114.32952286 93.35137562 114.32952286 90 118.25 C88.05263212 120.15628417 86.11385914 121.96599218 84.0625 123.75 C76.95451017 129.97712238 73.50161465 134.66269891 71.125 143.75 C70.74166504 145.13844116 70.74166504 145.13844116 70.35058594 146.55493164 C69.06929695 151.20176591 67.84124163 155.86112357 66.6328125 160.52734375 C63.11360383 173.808346 57.99268232 185.89749474 52 198.25 C55.96 198.58 59.92 198.91 64 199.25 C64 204.2 64 209.15 64 214.25 C63.01 214.25 62.02 214.25 61 214.25 C60.85304688 215.82974609 60.85304688 215.82974609 60.703125 217.44140625 C60.55271503 218.89850285 60.40163603 220.35553049 60.25 221.8125 C60.1571875 222.84020508 60.1571875 222.84020508 60.0625 223.88867188 C59.21525789 231.76096312 57.11924991 238.30281284 55 246.25 C72.16 246.58 89.32 246.91 107 247.25 C107 249.89 107 252.53 107 255.25 C103.7 255.25 100.4 255.25 97 255.25 C97 260.53 97 265.81 97 271.25 C89.25 269.375 89.25 269.375 86.95410156 268.79736328 C69.30022838 264.71600169 50.64864852 264.73621398 32.63305664 264.15087891 C31.40058516 264.10911821 30.16811367 264.06735751 28.89829457 264.02433133 C3.06348609 263.15743399 -22.76020533 262.90536918 -48.60771298 262.84528303 C-54.67729789 262.82917386 -60.74683868 262.80254916 -66.81639099 262.7772522 C-78.20425057 262.73127914 -89.59211926 262.69415349 -100.98002142 262.66057932 C-113.98958806 262.62176528 -126.99910954 262.57252042 -140.00863755 262.52259517 C-166.67239117 262.42049412 -193.33617405 262.33085587 -220 262.25 C-220 259.94 -220 257.63 -220 255.25 C-223.63 255.25 -227.26 255.25 -231 255.25 C-231 252.61 -231 249.97 -231 247.25 C-228.03 247.25 -225.06 247.25 -222 247.25 C-221.92843185 246.63177872 -221.85686371 246.01355743 -221.78312683 245.37660217 C-219.85160374 228.77943407 -217.66079972 212.23040021 -215.3125 195.6875 C-214.98869729 193.39261127 -214.66512874 191.09768949 -214.34179688 188.80273438 C-213.5638784 183.28477491 -212.78314117 177.76722053 -212 172.25 C-203.21428571 172.10714286 -203.21428571 172.10714286 -200 174.25 C-199.01 173.26 -199.01 173.26 -198 172.25 C-195.69 172.25 -193.38 172.25 -191 172.25 C-190.67 167.3 -190.34 162.35 -190 157.25 C-195.94 157.25 -201.88 157.25 -208 157.25 C-208.99 159.23 -208.99 159.23 -210 161.25 C-212.31 160.92 -214.62 160.59 -217 160.25 C-217.92054342 157.23731243 -218.27861489 155.82270838 -216.875 152.9375 C-215 151.25 -215 151.25 -212.3125 151 C-211.549375 151.0825 -210.78625 151.165 -210 151.25 C-209.34 152.57 -208.68 153.89 -208 155.25 C-202.06 155.25 -196.12 155.25 -190 155.25 C-190 143.04 -190 130.83 -190 118.25 C-197.26 118.25 -204.52 118.25 -212 118.25 C-212.33 119.24 -212.66 120.23 -213 121.25 C-215.38573912 122.31946926 -216.65402883 122.33896402 -219.1875 121.6875 C-221 120.25 -221 120.25 -221.75 117.125 C-221.8325 116.17625 -221.915 115.2275 -222 114.25 C-220.3125 112.6875 -220.3125 112.6875 -218 111.25 C-215.25 111.5625 -215.25 111.5625 -213 112.25 C-212.67 113.24 -212.34 114.23 -212 115.25 C-204.74 115.25 -197.48 115.25 -190 115.25 C-190.04640625 113.20296875 -190.0928125 111.1559375 -190.140625 109.046875 C-190.16844423 107.05779973 -190.19611952 105.06871957 -190.21972656 103.07958984 C-190.23980642 101.7002332 -190.26707666 100.32096131 -190.30175781 98.94189453 C-190.35042817 96.95643021 -190.37086418 94.97033746 -190.390625 92.984375 C-190.41157227 91.79038086 -190.43251953 90.59638672 -190.45410156 89.36621094 C-190 86.25 -190 86.25 -188.58520508 84.08361816 C-184.62476448 81.27458151 -180.92449205 81.72330549 -176.18261719 81.79589844 C-175.18716888 81.79531433 -174.19172058 81.79473022 -173.16610718 81.79412842 C-169.87600833 81.796915 -166.58681557 81.82803504 -163.296875 81.859375 C-161.01573176 81.86683532 -158.73458211 81.87252924 -156.45343018 81.87652588 C-150.44944566 81.8917985 -144.44584819 81.93109486 -138.4420166 81.9753418 C-132.31556433 82.01625908 -126.18904952 82.03452935 -120.0625 82.0546875 C-108.04149661 82.09758712 -96.02078049 82.16585854 -84 82.25 C-83.93546919 77.70685174 -83.95971429 73.16833291 -84 68.625 C-83.98066406 67.33980469 -83.96132812 66.05460937 -83.94140625 64.73046875 C-83.7662227 57.96921734 -83.7662227 57.96921734 -86.82019043 52.31015015 C-88.25813095 51.37285604 -89.71852441 50.46895798 -91.20092773 49.60369873 C-93 48.25 -93 48.25 -93.71118164 46.37237549 C-93.91998779 44.13805909 -93.90354365 42.0296313 -93.78125 39.7890625 C-93.76993042 38.99849457 -93.75861084 38.20792664 -93.74694824 37.3934021 C-93.70239598 34.88473112 -93.60210709 32.38192161 -93.5 29.875 C-93.45984413 28.16805173 -93.423347 26.46101321 -93.390625 24.75390625 C-93.30273436 20.58370208 -93.16486216 16.41784213 -93 12.25 C-93.99 11.92 -94.98 11.59 -96 11.25 C-96.04241723 8.91705225 -96.04092937 6.58297433 -96 4.25 C-95 3.25 -95 3.25 -91.5625 3 C-90.386875 3.0825 -89.21125 3.165 -88 3.25 C-86 6.25 -86 6.25 -86.375 8.9375 C-86.58125 9.700625 -86.7875 10.46375 -87 11.25 C-87.99 11.58 -88.98 11.91 -90 12.25 C-90 23.8 -90 35.35 -90 47.25 C-88.35 47.91 -86.7 48.57 -85 49.25 C-82.71191406 50.4465332 -82.71191406 50.4465332 -81 52.25 C-80.54589844 55.34448242 -80.54589844 55.34448242 -80.609375 59.10546875 C-80.61503479 59.76710526 -80.62069458 60.42874176 -80.62652588 61.11042786 C-80.64888753 63.22019332 -80.69907629 65.32824952 -80.75 67.4375 C-80.7700656 68.86911606 -80.78831628 70.3007588 -80.8046875 71.73242188 C-80.84534889 75.23946666 -80.92361868 78.7428246 -81 82.25 C-71.43 82.25 -61.86 82.25 -52 82.25 C-52.07393129 76.32274994 -52.15669718 70.39702861 -52.26245117 64.47045898 C-52.2957271 62.45393765 -52.32375068 60.43732258 -52.34643555 58.4206543 C-52.37993256 55.523519 -52.43224544 52.62724482 -52.48828125 49.73046875 C-52.49786613 48.37564644 -52.49786613 48.37564644 -52.50764465 46.99345398 C-52.52743881 46.15280899 -52.54723297 45.312164 -52.56762695 44.44604492 C-52.57873001 43.70658127 -52.58983307 42.96711761 -52.60127258 42.20524597 C-53.10449521 39.73758519 -54.19481884 38.94075748 -56 37.25 C-56.3125 34.6875 -56.3125 34.6875 -56 32.25 C-54 30.25 -54 30.25 -51 30 C-48 30.25 -48 30.25 -46 32.25 C-46.25 35.8125 -46.25 35.8125 -47 39.25 C-47.99 39.745 -47.99 39.745 -49 40.25 C-49.33 54.11 -49.66 67.97 -50 82.25 C-38.78 81.92 -27.56 81.59 -16 81.25 C-17.753125 77.57875 -19.50625 73.9075 -21.3125 70.125 C-21.85946533 68.9788623 -22.40643066 67.83272461 -22.9699707 66.65185547 C-23.40913818 65.73291504 -23.84830566 64.81397461 -24.30078125 63.8671875 C-24.7704834 62.88266602 -25.24018555 61.89814453 -25.72412109 60.88378906 C-26.7167859 58.83463713 -27.75404061 56.80706268 -28.80859375 54.7890625 C-31.76909751 48.47979219 -31.00460989 41.76412554 -30.3125 35 C-29.87796575 29.75557067 -29.87796575 29.75557067 -31.5 24.8125 C-32.325 23.966875 -33.15 23.12125 -34 22.25 C-34.60328125 21.62222656 -35.2065625 20.99445313 -35.828125 20.34765625 C-37.52008267 18.61099238 -39.24186854 16.91923718 -41 15.25 C-37.13617396 13.96205799 -34.46860247 14.94173225 -30.6875 16 C-30.03587891 16.17015625 -29.38425781 16.3403125 -28.71289062 16.515625 C-22.69493404 18.15414771 -17.57201106 19.95674794 -13.625 24.9375 C-13.12226563 25.56011719 -12.61953125 26.18273437 -12.1015625 26.82421875 C-11.73804688 27.29472656 -11.37453125 27.76523438 -11 28.25 C-9.87411986 27.29270084 -8.7493285 26.33412105 -7.625 25.375 C-6.99851563 24.84132813 -6.37203125 24.30765625 -5.7265625 23.7578125 C-2.79026114 21.38814239 -2.79026114 21.38814239 -1.69921875 17.9375 C-1.69535156 17.050625 -1.69148437 16.16375 -1.6875 15.25 C-1.66236328 13.9196875 -1.66236328 13.9196875 -1.63671875 12.5625 C-1.75660156 11.799375 -1.87648437 11.03625 -2 10.25 C-2.99 9.59 -3.98 8.93 -5 8.25 C-5.3125 5.25 -5.3125 5.25 -5 2.25 C-3 0.25 -3 0.25 0 0 Z M-2 3.25 C-1.67 4.57 -1.34 5.89 -1 7.25 C-0.01 6.92 0.98 6.59 2 6.25 C2 5.26 2 4.27 2 3.25 C0.68 3.25 -0.64 3.25 -2 3.25 Z M-92 5.25 C-92.33 6.57 -92.66 7.89 -93 9.25 C-91.68 9.25 -90.36 9.25 -89 9.25 C-89.66 7.93 -90.32 6.61 -91 5.25 C-91.33 5.25 -91.66 5.25 -92 5.25 Z M-53 33.25 C-52.67 34.57 -52.34 35.89 -52 37.25 C-51.01 36.92 -50.02 36.59 -49 36.25 C-49 35.26 -49 34.27 -49 33.25 C-50.32 33.25 -51.64 33.25 -53 33.25 Z M73 43.25 C73 44.57 73 45.89 73 47.25 C74.32 46.92 75.64 46.59 77 46.25 C76.67 45.26 76.34 44.27 76 43.25 C75.01 43.25 74.02 43.25 73 43.25 Z M-219 115.25 C-218.34 116.57 -217.68 117.89 -217 119.25 C-216.34 118.92 -215.68 118.59 -215 118.25 C-215.33 116.93 -215.66 115.61 -216 114.25 C-217.2236068 114.1754644 -217.2236068 114.1754644 -219 115.25 Z M23 143.25 C24 145.25 24 145.25 24 145.25 Z M-214 154.25 C-214 155.57 -214 156.89 -214 158.25 C-212.68 157.92 -211.36 157.59 -210 157.25 C-210.33 156.26 -210.66 155.27 -211 154.25 C-211.99 154.25 -212.98 154.25 -214 154.25 Z M-130 225.25 C-130 232.51 -130 239.77 -130 247.25 C-126.7 247.25 -123.4 247.25 -120 247.25 C-120 246.59 -120 245.93 -120 245.25 C-117.02148438 245.0546875 -117.02148438 245.0546875 -114.04296875 244.859375 C-111.1541031 243.99768659 -110.45310619 242.87078081 -109 240.25 C-108.20950452 237.05557518 -108.20950452 237.05557518 -107.8125 233.625 C-107.65394531 232.47773438 -107.49539062 231.33046875 -107.33203125 230.1484375 C-106.96206303 227.40506477 -106.96206303 227.40506477 -107 225.25 C-114.59 225.25 -122.18 225.25 -130 225.25 Z M-66 225.25 C-66.04349839 237.35557281 -66.04349839 237.35557281 -62 243.25 C-55.15312658 248.56462989 -46.31967427 247.76823992 -38.12109375 247.640625 C-36.69906923 247.63314983 -35.2770343 247.62746294 -33.85499573 247.62347412 C-30.14104979 247.60831772 -26.42774549 247.5691252 -22.71405029 247.5246582 C-18.91297074 247.48348723 -15.11178589 247.4654169 -11.31054688 247.4453125 C-3.87340774 247.40261865 3.56320568 247.33449215 11 247.25 C10.566875 246.033125 10.13375 244.81625 9.6875 243.5625 C7.77993841 237.55721352 6.41683361 231.38961232 5 225.25 C-18.43 225.25 -41.86 225.25 -66 225.25 Z " fill="#000066" transform="translate(250,44.75)"/>
<path d="M0 0 C11.6188325 1.86731237 17.32655053 10.27512614 23.99609375 19.20703125 C26 22 26 22 27 24 C41.98984932 25.99152712 41.98984932 25.99152712 55.640625 21.7734375 C58.15615081 19.09552049 58.15615081 19.09552049 60.0078125 16.1875 C62 14 62 14 65.7421875 13.6875 C66.81726563 13.790625 67.89234375 13.89375 69 14 C69.66 12.68 70.32 11.36 71 10 C73.31 10.33 75.62 10.66 78 11 C78.625 13.8125 78.625 13.8125 79 17 C78.34 17.99 77.68 18.98 77 20 C74 20.3125 74 20.3125 71 20 C70.34 19.34 69.68 18.68 69 18 C66.08238621 17.42142243 66.08238621 17.42142243 63 18 C60.93238524 20.17608132 60.93238524 20.17608132 59.0625 22.9375 C54.44411218 28.01414646 50.86806733 28.68642176 44.08374023 29.06079102 C39.38394219 29.15483704 34.69821336 29.16095405 30 29 C30.20496094 29.58007812 30.40992188 30.16015625 30.62109375 30.7578125 C33.45224834 38.96680619 34.11826079 46.10513598 34 54.75 C33.97455493 56.64056856 33.95350005 58.53120292 33.9375 60.421875 C33.92009766 61.66855957 33.92009766 61.66855957 33.90234375 62.94042969 C33.86396723 65.06489221 33.86396723 65.06489221 35 67 C35.19971553 70.26571869 35.34481895 73.52445168 35.4296875 76.79492188 C35.70397037 82.91485837 36.98566811 87.75545875 41.1875 92.4375 C41.785625 92.953125 42.38375 93.46875 43 94 C44.59010464 90.81979073 43.81311017 87.46261526 43.5625 84 C41.41422542 49.79711627 41.41422542 49.79711627 52 37 C54.57427336 34.2280512 57.22997028 31.5757679 60 29 C60.77616561 31.32849684 61.04805138 32.77122866 60.53833008 35.19799805 C59.89337541 38.55497976 59.8547365 41.72588483 59.82421875 45.14453125 C59.80097553 46.55925893 59.77685653 47.97397244 59.75195312 49.38867188 C59.71728399 51.58204021 59.68773417 53.77490061 59.67407227 55.96850586 C59.60236874 65.6330386 58.54684051 74.29594341 55.89355469 83.60375977 C53.41001562 93.04324393 55.7468189 101.69221617 58 111 C59.09129245 109.81981013 60.17257507 108.63036331 61.25 107.4375 C62.15492188 106.44556641 62.15492188 106.44556641 63.078125 105.43359375 C67.76554681 99.49809825 69.58549285 94.4375994 70.875 87.125 C72.36103214 79.88477776 73.98857456 74.60318047 79 69 C79.53077148 68.39961914 80.06154297 67.79923828 80.60839844 67.18066406 C83.67583089 63.73165288 86.78393777 60.32068091 89.953125 56.96484375 C90.49098633 56.3937085 91.02884766 55.82257324 91.58300781 55.23413086 C93 54 93 54 95 54 C94.690625 54.763125 94.38125 55.52625 94.0625 56.3125 C92.59098062 60.03457843 91.89151686 62.73301046 92.0078125 66.7109375 C92.02457031 67.62617188 92.04132813 68.54140625 92.05859375 69.484375 C92.1026897 71.40384596 92.15471049 73.32315201 92.21484375 75.2421875 C92.35137562 84.07952286 92.35137562 84.07952286 89 88 C87.05263212 89.90628417 85.11385914 91.71599218 83.0625 93.5 C75.95451017 99.72712238 72.50161465 104.41269891 70.125 113.5 C69.74166504 114.88844116 69.74166504 114.88844116 69.35058594 116.30493164 C68.06929695 120.95176591 66.84124163 125.61112357 65.6328125 130.27734375 C62.11360383 143.558346 56.99268232 155.64749474 51 168 C54.96 168.33 58.92 168.66 63 169 C63 173.95 63 178.9 63 184 C62.01 184 61.02 184 60 184 C59.85304688 185.57974609 59.85304688 185.57974609 59.703125 187.19140625 C59.55271503 188.64850285 59.40163603 190.10553049 59.25 191.5625 C59.1571875 192.59020508 59.1571875 192.59020508 59.0625 193.63867188 C58.21525789 201.51096312 56.11924991 208.05281284 54 216 C71.16 216.33 88.32 216.66 106 217 C106 219.64 106 222.28 106 225 C102.7 225 99.4 225 96 225 C96 230.28 96 235.56 96 241 C88.25 239.125 88.25 239.125 85.95410156 238.54736328 C68.30022838 234.46600169 49.64864852 234.48621398 31.63305664 233.90087891 C30.40058516 233.85911821 29.16811367 233.81735751 27.89829457 233.77433133 C2.06348609 232.90743399 -23.76020533 232.65536918 -49.60771298 232.59528303 C-55.67729789 232.57917386 -61.74683868 232.55254916 -67.81639099 232.5272522 C-79.20425057 232.48127914 -90.59211926 232.44415349 -101.98002142 232.41057932 C-114.98958806 232.37176528 -127.99910954 232.32252042 -141.00863755 232.27259517 C-167.67239117 232.17049412 -194.33617405 232.08085587 -221 232 C-221 229.69 -221 227.38 -221 225 C-224.63 225 -228.26 225 -232 225 C-232 222.36 -232 219.72 -232 217 C-229.03 217 -226.06 217 -223 217 C-222.92843185 216.38177872 -222.85686371 215.76355743 -222.78312683 215.12660217 C-220.85160374 198.52943407 -218.66079972 181.98040021 -216.3125 165.4375 C-215.98869729 163.14261127 -215.66512874 160.84768949 -215.34179688 158.55273438 C-214.5638784 153.03477491 -213.78314117 147.51722053 -213 142 C-204.21428571 141.85714286 -204.21428571 141.85714286 -201 144 C-200.01 143.01 -200.01 143.01 -199 142 C-195.375 141.875 -195.375 141.875 -192 142 C-191.59879698 150.15779481 -192.81202979 157.74350177 -194.14453125 165.75390625 C-195.02326493 171.05311715 -195.78002011 176.36462078 -196.5 181.6875 C-196.62133301 182.58452637 -196.74266602 183.48155273 -196.86767578 184.40576172 C-198.32000625 195.26092737 -199.66261365 206.13017905 -201 217 C-195.06 217 -189.12 217 -183 217 C-182.86722656 215.66324219 -182.73445313 214.32648438 -182.59765625 212.94921875 C-182.41945002 211.19529428 -182.24105477 209.44138902 -182.0625 207.6875 C-181.97548828 206.80642578 -181.88847656 205.92535156 -181.79882812 205.01757812 C-181.71181641 204.17001953 -181.62480469 203.32246094 -181.53515625 202.44921875 C-181.456604 201.66893311 -181.37805176 200.88864746 -181.29711914 200.0847168 C-181 198 -181 198 -180 195 C-181.093125 195.061875 -182.18625 195.12375 -183.3125 195.1875 C-187 195 -187 195 -190 192 C-190 186.39 -190 180.78 -190 175 C-127.3 175 -64.6 175 0 175 C0 173.02 0 171.04 0 169 C4.29 169 8.58 169 13 169 C12.7297238 147.29694255 12.7297238 147.29694255 9 126 C8.78859375 125.11957031 8.5771875 124.23914063 8.359375 123.33203125 C7.92969846 121.54887362 7.47035137 119.77286284 7 118 C14.66696738 124.8310052 20.71663596 137.04630628 23 147 C24.75406661 134.23603319 25.94937003 124.52787978 21.90625 112.06640625 C19.24136197 103.04943598 22.50810593 95.74715005 26.109375 87.44140625 C29.85621715 77.17045739 24.93181649 65.01670855 21.24609375 55.29296875 C17.64924408 45.75957108 15.17222376 37.11265234 14.61865234 26.88598633 C14.12609734 18.32000696 12.24794698 11.10264589 6 5 C2.85011127 3.13076797 2.85011127 3.13076797 0 2 C0 1.34 0 0.68 0 0 Z M72 13 C72 14.32 72 15.64 72 17 C73.32 16.67 74.64 16.34 76 16 C75.67 15.01 75.34 14.02 75 13 C74.01 13 73.02 13 72 13 Z M-131 195 C-131 202.26 -131 209.52 -131 217 C-127.7 217 -124.4 217 -121 217 C-121 216.34 -121 215.68 -121 215 C-118.02148438 214.8046875 -118.02148438 214.8046875 -115.04296875 214.609375 C-112.1541031 213.74768659 -111.45310619 212.62078081 -110 210 C-109.20950452 206.80557518 -109.20950452 206.80557518 -108.8125 203.375 C-108.65394531 202.22773438 -108.49539062 201.08046875 -108.33203125 199.8984375 C-107.96206303 197.15506477 -107.96206303 197.15506477 -108 195 C-115.59 195 -123.18 195 -131 195 Z M-67 195 C-67.04349839 207.10557281 -67.04349839 207.10557281 -63 213 C-56.15312658 218.31462989 -47.31967427 217.51823992 -39.12109375 217.390625 C-37.69906923 217.38314983 -36.2770343 217.37746294 -34.85499573 217.37347412 C-31.14104979 217.35831772 -27.42774549 217.3191252 -23.71405029 217.2746582 C-19.91297074 217.23348723 -16.11178589 217.2154169 -12.31054688 217.1953125 C-4.87340774 217.15261865 2.56320568 217.08449215 10 217 C9.566875 215.783125 9.13375 214.56625 8.6875 213.3125 C6.77993841 207.30721352 5.41683361 201.13961232 4 195 C-19.43 195 -42.86 195 -67 195 Z " fill="#FBFBFD" transform="translate(251,75)"/>
<path d="M0 0 C16.17 0 32.34 0 49 0 C57.34483901 11.32513866 65.68764855 22.65109567 74 34 C77.465 33.505 77.465 33.505 81 33 C80.95359375 32.27554688 80.9071875 31.55109375 80.859375 30.8046875 C80.62953713 24.64831587 80.68870095 20.80401894 85 16 C88.70862983 13.52758011 91.69905615 13.33331305 96 14 C100.03143565 16.09037404 102.38569033 17.75496346 104 22 C104.1953125 24.796875 104.1953125 24.796875 104.125 27.75 C104.10695313 28.73484375 104.08890625 29.7196875 104.0703125 30.734375 C104.04710937 31.48203125 104.02390625 32.2296875 104 33 C105.175625 32.938125 105.175625 32.938125 106.375 32.875 C109 33 109 33 111 35 C111.25878906 37.67382812 111.25878906 37.67382812 111.265625 41.03125 C111.26949219 42.83529297 111.26949219 42.83529297 111.2734375 44.67578125 C111.26570313 45.93777344 111.25796875 47.19976562 111.25 48.5 C111.26160156 50.39298828 111.26160156 50.39298828 111.2734375 52.32421875 C111.27085937 53.52691406 111.26828125 54.72960937 111.265625 55.96875 C111.26336914 57.07669922 111.26111328 58.18464844 111.25878906 59.32617188 C111 62 111 62 109 64 C105.9609375 64.1953125 105.9609375 64.1953125 102.375 64.125 C101.18648438 64.10695313 99.99796875 64.08890625 98.7734375 64.0703125 C97.85820312 64.04710937 96.94296875 64.02390625 96 64 C96.3609375 64.48210937 96.721875 64.96421875 97.09375 65.4609375 C97.78984375 66.40839844 97.78984375 66.40839844 98.5 67.375 C98.9640625 68.00148438 99.428125 68.62796875 99.90625 69.2734375 C101 71 101 71 101 73 C113.21 73 125.42 73 138 73 C138 79.93 138 86.86 138 94 C131.4 94 124.8 94 118 94 C119.32 95.98 120.64 97.96 122 100 C122 100.66 122 101.32 122 102 C81.74 102 41.48 102 0 102 C0 68.34 0 34.68 0 0 Z " fill="#3365FD" transform="translate(71,138)"/>
<path d="M0 0 C11.6188325 1.86731237 17.32655053 10.27512614 23.99609375 19.20703125 C26 22 26 22 27 24 C41.98984932 25.99152712 41.98984932 25.99152712 55.640625 21.7734375 C58.15615081 19.09552049 58.15615081 19.09552049 60.0078125 16.1875 C62 14 62 14 65.7421875 13.6875 C66.81726563 13.790625 67.89234375 13.89375 69 14 C69.66 12.68 70.32 11.36 71 10 C73.31 10.33 75.62 10.66 78 11 C78.625 13.8125 78.625 13.8125 79 17 C78.01 18.485 78.01 18.485 77 20 C74 20.3125 74 20.3125 71 20 C70.01 19.01 70.01 19.01 69 18 C66.08238621 17.42142243 66.08238621 17.42142243 63 18 C60.93238524 20.17608132 60.93238524 20.17608132 59.0625 22.9375 C54.44411218 28.01414646 50.86806733 28.68642176 44.08374023 29.06079102 C39.38394219 29.15483704 34.69821336 29.16095405 30 29 C30.20496094 29.58007812 30.40992188 30.16015625 30.62109375 30.7578125 C33.45224834 38.96680619 34.11826079 46.10513598 34 54.75 C33.97455493 56.64056856 33.95350005 58.53120292 33.9375 60.421875 C33.92589844 61.25299805 33.91429687 62.08412109 33.90234375 62.94042969 C33.86396723 65.06489221 33.86396723 65.06489221 35 67 C35.19971553 70.26571869 35.34481895 73.52445168 35.4296875 76.79492188 C35.70397037 82.91485837 36.98566811 87.75545875 41.1875 92.4375 C41.785625 92.953125 42.38375 93.46875 43 94 C44.59010464 90.81979073 43.81311017 87.46261526 43.5625 84 C41.41422542 49.79711627 41.41422542 49.79711627 52 37 C54.57427336 34.2280512 57.22997028 31.5757679 60 29 C60.77616561 31.32849684 61.04805138 32.77122866 60.53833008 35.19799805 C59.89337541 38.55497976 59.8547365 41.72588483 59.82421875 45.14453125 C59.80097553 46.55925893 59.77685653 47.97397244 59.75195312 49.38867188 C59.71728399 51.58204021 59.68773417 53.77490061 59.67407227 55.96850586 C59.60236874 65.6330386 58.54684051 74.29594341 55.89355469 83.60375977 C53.41001562 93.04324393 55.7468189 101.69221617 58 111 C59.09129245 109.81981013 60.17257507 108.63036331 61.25 107.4375 C61.85328125 106.77621094 62.4565625 106.11492187 63.078125 105.43359375 C67.76554681 99.49809825 69.58549285 94.4375994 70.875 87.125 C72.36103214 79.88477776 73.98857456 74.60318047 79 69 C79.53077148 68.39961914 80.06154297 67.79923828 80.60839844 67.18066406 C83.67583089 63.73165288 86.78393777 60.32068091 89.953125 56.96484375 C90.49098633 56.3937085 91.02884766 55.82257324 91.58300781 55.23413086 C93 54 93 54 95 54 C94.690625 54.763125 94.38125 55.52625 94.0625 56.3125 C92.59098062 60.03457843 91.89151686 62.73301046 92.0078125 66.7109375 C92.02457031 67.62617188 92.04132813 68.54140625 92.05859375 69.484375 C92.1026897 71.40384596 92.15471049 73.32315201 92.21484375 75.2421875 C92.35137562 84.07952286 92.35137562 84.07952286 89 88 C87.05263212 89.90628417 85.11385914 91.71599218 83.0625 93.5 C75.95451017 99.72712238 72.50161465 104.41269891 70.125 113.5 C69.74166504 114.88844116 69.74166504 114.88844116 69.35058594 116.30493164 C68.06929695 120.95176591 66.84124163 125.61112357 65.6328125 130.27734375 C62.11360383 143.558346 56.99268232 155.64749474 51 168 C54.96 168.33 58.92 168.66 63 169 C63 173.95 63 178.9 63 184 C62.01 184 61.02 184 60 184 C59.90203125 185.05316406 59.8040625 186.10632813 59.703125 187.19140625 C57.11121338 212.88878662 57.11121338 212.88878662 53 217 C51.66598109 217.11850165 50.32589278 217.16998963 48.98681641 217.19287109 C48.13568268 217.20893402 47.28454895 217.22499695 46.40762329 217.24154663 C42.51101316 217.28583159 38.61457611 217.32705808 34.71777344 217.35009766 C32.65939031 217.36667131 30.60106506 217.39397978 28.54296875 217.43212891 C25.58302812 217.48674912 22.62443842 217.50874807 19.6640625 217.5234375 C18.7421109 217.54610687 17.8201593 217.56877625 16.87026978 217.59213257 C14.47763476 217.58417969 12.33247892 217.53305676 10 217 C6.86419559 213.44596353 6.23396615 209.46770431 5.3125 204.875 C5.06113281 203.65554688 4.80976563 202.43609375 4.55078125 201.1796875 C4 198 4 198 4 195 C2.84064941 195.07331543 1.68129883 195.14663086 0.48681641 195.22216797 C-3.85406494 195.47739348 -8.19430334 195.63688151 -12.54052734 195.76904297 C-14.4134091 195.83905422 -16.28553613 195.93431675 -18.15576172 196.05615234 C-33.24599473 197.01387913 -33.24599473 197.01387913 -37.80871582 193.67736816 C-40.84840857 190.49455881 -43.03951223 186.8993746 -44.95523071 182.9524231 C-46.43633357 180.18459725 -48.25868965 177.61196552 -50 175 C-33.5 175 -17 175 0 175 C0 173.02 0 171.04 0 169 C4.29 169 8.58 169 13 169 C12.7297238 147.29694255 12.7297238 147.29694255 9 126 C8.78859375 125.11957031 8.5771875 124.23914063 8.359375 123.33203125 C7.92969846 121.54887362 7.47035137 119.77286284 7 118 C14.66696738 124.8310052 20.71663596 137.04630628 23 147 C24.75406661 134.23603319 25.94937003 124.52787978 21.90625 112.06640625 C19.24136197 103.04943598 22.50810593 95.74715005 26.109375 87.44140625 C29.85621715 77.17045739 24.93181649 65.01670855 21.24609375 55.29296875 C17.64924408 45.75957108 15.17222376 37.11265234 14.61865234 26.88598633 C14.12609734 18.32000696 12.24794698 11.10264589 6 5 C2.85011127 3.13076797 2.85011127 3.13076797 0 2 C0 1.34 0 0.68 0 0 Z M72 13 C72 14.32 72 15.64 72 17 C73.32 16.67 74.64 16.34 76 16 C75.67 15.01 75.34 14.02 75 13 C74.01 13 73.02 13 72 13 Z " fill="#3265FD" transform="translate(251,75)"/>
<path d="M0 0 C3 0.25 3 0.25 5 2.25 C4.75 5.8125 4.75 5.8125 4 9.25 C3.34 9.58 2.68 9.91 2 10.25 C1.92564264 12.24872585 1.91666667 14.25 1.9375 16.25 C1.63557043 21.95521091 0.52455996 24.55845844 -3.5625 28.5625 C-5.01421303 29.82397295 -6.48487154 31.06544503 -8 32.25 C-6.1630008 38.11832182 -6.1630008 38.11832182 -3.79296875 43.78125 C-0.20865366 51.31805756 1.01855604 58.55495828 1.92382812 66.77636719 C2.541398 72.11735056 3.32630554 76.53651516 6 81.25 C7.88966389 82.31543143 7.88966389 82.31543143 10 82.375 C12.0625 82.5703125 12.0625 82.5703125 14 83.25 C17.7547552 87.80180625 17.3489588 92.1705982 17.23046875 97.765625 C17.22836608 99.67708229 17.2277661 101.5885417 17.22851562 103.5 C17.2141613 106.4818064 17.18819031 109.46199804 17.1340332 112.44335938 C16.9068943 126.79757691 18.91991715 136.74891692 26 149.25 C26.92759979 152.03279938 27.13481575 153.74898585 27.125 156.625 C27.12886719 157.75035156 27.12886719 157.75035156 27.1328125 158.8984375 C27 161.25 27 161.25 26.52734375 163.58203125 C25.8703634 166.90586516 25.65861561 170.18258991 25.4375 173.5625 C25.35371094 174.81675781 25.26992188 176.07101563 25.18359375 177.36328125 C25.12300781 178.31589844 25.06242187 179.26851562 25 180.25 C23.15170551 177.47755827 22.32638836 175.43674421 21.3125 172.3125 C19.00851073 165.7903048 15.62171421 160.11532835 12 154.25 C11.47535156 153.32960937 10.95070313 152.40921875 10.41015625 151.4609375 C9.19051386 149.13125118 9.19051386 149.13125118 7 148.25 C6.03855242 145.84523918 5.1915207 143.47427101 4.390625 141.015625 C4.14314514 140.2741774 3.89566528 139.5327298 3.64068604 138.76881409 C2.83584889 136.34842504 2.04261327 133.92441686 1.25 131.5 C0.70267763 129.84457783 0.15515137 128.18922306 -0.39257812 126.53393555 C-3.53720283 116.98273786 -6.57273656 107.41264241 -9.12402344 97.68261719 C-11.30965155 89.50355893 -15.00273473 82.09006739 -18.8125 74.5625 C-19.15289307 73.8804248 -19.49328613 73.19834961 -19.84399414 72.49560547 C-21.53018236 69.12322903 -23.24549783 65.77364721 -25.0390625 62.45703125 C-30.29432518 52.63600271 -31.38153196 45.98918878 -30.3125 35 C-29.87796575 29.75557067 -29.87796575 29.75557067 -31.5 24.8125 C-32.325 23.966875 -33.15 23.12125 -34 22.25 C-34.60328125 21.62222656 -35.2065625 20.99445313 -35.828125 20.34765625 C-37.52008267 18.61099238 -39.24186854 16.91923718 -41 15.25 C-37.13617396 13.96205799 -34.46860247 14.94173225 -30.6875 16 C-29.71006836 16.25523438 -29.71006836 16.25523438 -28.71289062 16.515625 C-22.69493404 18.15414771 -17.57201106 19.95674794 -13.625 24.9375 C-13.12226563 25.56011719 -12.61953125 26.18273437 -12.1015625 26.82421875 C-11.73804688 27.29472656 -11.37453125 27.76523438 -11 28.25 C-9.87411986 27.29270084 -8.7493285 26.33412105 -7.625 25.375 C-6.99851563 24.84132813 -6.37203125 24.30765625 -5.7265625 23.7578125 C-2.79026114 21.38814239 -2.79026114 21.38814239 -1.69921875 17.9375 C-1.69535156 17.050625 -1.69148438 16.16375 -1.6875 15.25 C-1.67074219 14.363125 -1.65398437 13.47625 -1.63671875 12.5625 C-1.75660156 11.799375 -1.87648437 11.03625 -2 10.25 C-2.99 9.59 -3.98 8.93 -5 8.25 C-5.3125 5.25 -5.3125 5.25 -5 2.25 C-3 0.25 -3 0.25 0 0 Z M-2 3.25 C-1.67 4.57 -1.34 5.89 -1 7.25 C-0.01 6.92 0.98 6.59 2 6.25 C2 5.26 2 4.27 2 3.25 C0.68 3.25 -0.64 3.25 -2 3.25 Z " fill="#020267" transform="translate(250,44.75)"/>
<path d="M0 0 C40.23950924 -0.02286476 80.47901764 -0.0404974 120.71853208 -0.05106533 C125.46396606 -0.05231611 130.20940003 -0.05361042 134.95483398 -0.05493164 C135.89960594 -0.05519395 136.8443779 -0.05545626 137.81777931 -0.05572652 C153.1363069 -0.06008356 168.45483076 -0.06797129 183.77335613 -0.0771528 C199.47940308 -0.08648839 215.18544806 -0.09205541 230.89149767 -0.09408849 C240.591084 -0.09546392 250.29065977 -0.09981555 259.99024285 -0.10791647 C266.63221397 -0.11318277 273.27417959 -0.11480456 279.91615265 -0.11350138 C283.7541638 -0.11285781 287.59215644 -0.11387755 291.43016434 -0.11920547 C295.58117635 -0.12492618 299.73214843 -0.12300124 303.88316345 -0.12025452 C305.10979027 -0.12316736 306.33641709 -0.1260802 307.60021442 -0.12908131 C309.2543305 -0.12609474 309.2543305 -0.12609474 310.94186306 -0.12304783 C311.90141633 -0.12342755 312.86096961 -0.12380727 313.84960026 -0.1241985 C316 0 316 0 317 1 C317.07319621 3.69654854 317.09242537 6.36691458 317.0625 9.0625 C317.05798828 9.82111328 317.05347656 10.57972656 317.04882812 11.36132812 C317.0370068 13.24091871 317.01907078 15.12046899 317 17 C315.93265625 16.73445313 314.8653125 16.46890625 313.765625 16.1953125 C312.26057752 15.83786372 310.75535922 15.48113364 309.25 15.125 C308.5590625 14.95097656 307.868125 14.77695312 307.15625 14.59765625 C289.43830384 10.47365154 270.71986869 10.48852795 252.63305664 9.90087891 C251.40058516 9.85911821 250.16811367 9.81735751 248.89829457 9.77433133 C223.06348609 8.90743399 197.23979467 8.65536918 171.39228702 8.59528303 C165.32270211 8.57917386 159.25316132 8.55254916 153.18360901 8.5272522 C141.79574943 8.48127914 130.40788074 8.44415349 119.01997858 8.41057932 C106.01041194 8.37176528 93.00089046 8.32252042 79.99136245 8.27259517 C53.32760883 8.17049412 26.66382595 8.08085587 0 8 C0 5.36 0 2.72 0 0 Z " fill="#07076A" transform="translate(30,299)"/>
<path d="M0 0 C11.6188325 1.86731237 17.32655053 10.27512614 23.99609375 19.20703125 C26 22 26 22 27 24 C41.98984932 25.99152712 41.98984932 25.99152712 55.640625 21.7734375 C58.15615081 19.09552049 58.15615081 19.09552049 60.0078125 16.1875 C62 14 62 14 65.7421875 13.6875 C66.81726563 13.790625 67.89234375 13.89375 69 14 C69.66 12.68 70.32 11.36 71 10 C73.31 10.33 75.62 10.66 78 11 C78.625 13.8125 78.625 13.8125 79 17 C78.01 18.485 78.01 18.485 77 20 C74 20.3125 74 20.3125 71 20 C70.01 19.01 70.01 19.01 69 18 C66.08238621 17.42142243 66.08238621 17.42142243 63 18 C60.93238524 20.17608132 60.93238524 20.17608132 59.0625 22.9375 C54.44411218 28.01414646 50.86806733 28.68642176 44.08374023 29.06079102 C39.38394219 29.15483704 34.69821336 29.16095405 30 29 C30.20496094 29.58007812 30.40992188 30.16015625 30.62109375 30.7578125 C33.45224834 38.96680619 34.11826079 46.10513598 34 54.75 C33.97455493 56.64056856 33.95350005 58.53120292 33.9375 60.421875 C33.92589844 61.25299805 33.91429687 62.08412109 33.90234375 62.94042969 C33.86396723 65.06489221 33.86396723 65.06489221 35 67 C35.19971553 70.26571869 35.34481895 73.52445168 35.4296875 76.79492188 C35.69103822 82.6263099 36.87110551 87.49094578 40.75 92.0625 C42 94 42 94 41.875 96.875 C41 100 41 100 39.44604492 102.78369141 C37.80368446 106.43664712 37.75284413 108.61567622 37.98828125 112.5859375 C38.03944092 113.83930908 38.09060059 115.09268066 38.14331055 116.3840332 C38.19914307 117.70105225 38.25497559 119.01807129 38.3125 120.375 C38.67727708 133.02925885 36.77722479 141.37299071 30 152 C28.78700382 154.98310136 27.88519214 157.90182751 27 161 C26.67 161 26.34 161 26 161 C25.67 159.35 25.34 157.7 25 156 C24.86722656 156.85464844 24.73445313 157.70929688 24.59765625 158.58984375 C24.42105469 159.69457031 24.24445313 160.79929688 24.0625 161.9375 C23.88847656 163.03964844 23.71445312 164.14179688 23.53515625 165.27734375 C23 168 23 168 22 169 C20.48071962 169.07179964 18.95832518 169.08392007 17.4375 169.0625 C16.61121094 169.05347656 15.78492188 169.04445312 14.93359375 169.03515625 C14.29550781 169.02355469 13.65742188 169.01195312 13 169 C12.98541748 168.23034912 12.97083496 167.46069824 12.95581055 166.66772461 C12.61113941 146.13852526 12.61113941 146.13852526 9 126 C8.78859375 125.11957031 8.5771875 124.23914063 8.359375 123.33203125 C7.92969846 121.54887362 7.47035137 119.77286284 7 118 C14.66696738 124.8310052 20.71663596 137.04630628 23 147 C24.75406661 134.23603319 25.94937003 124.52787978 21.90625 112.06640625 C19.24136197 103.04943598 22.50810593 95.74715005 26.109375 87.44140625 C29.85621715 77.17045739 24.93181649 65.01670855 21.24609375 55.29296875 C17.64924408 45.75957108 15.17222376 37.11265234 14.61865234 26.88598633 C14.12609734 18.32000696 12.24794698 11.10264589 6 5 C2.85011127 3.13076797 2.85011127 3.13076797 0 2 C0 1.34 0 0.68 0 0 Z M72 13 C72 14.32 72 15.64 72 17 C73.32 16.67 74.64 16.34 76 16 C75.67 15.01 75.34 14.02 75 13 C74.01 13 73.02 13 72 13 Z " fill="#FBFBFD" transform="translate(251,75)"/>
<path d="M0 0 C0.77616561 2.32849684 1.04805138 3.77122866 0.53833008 6.19799805 C-0.10662459 9.55497976 -0.1452635 12.72588483 -0.17578125 16.14453125 C-0.19902447 17.55925893 -0.22314347 18.97397244 -0.24804688 20.38867188 C-0.28271601 22.58204021 -0.31226583 24.77490061 -0.32592773 26.96850586 C-0.39772082 36.64510921 -1.45912751 45.25473603 -4.11254883 54.5793457 C-6.02827573 61.96345839 -5.03263004 68.3559974 -3.46484375 75.69140625 C-2.36695908 81.1439259 -2.48312708 84.55374246 -5.4375 89.25 C-5.88996094 89.89453125 -6.34242188 90.5390625 -6.80859375 91.203125 C-8.76469787 94.15331482 -9.10440278 96.59904177 -9.03515625 100.03515625 C-9.04498644 112.25162321 -11.33419861 121.24893619 -17.16796875 131.98388672 C-18.32698318 134.57856429 -18.32698318 134.57856429 -19 140 C-24.94 140 -30.88 140 -37 140 C-36.67 134.39 -36.34 128.78 -36 123 C-35 125 -34 127 -33 129 C-32.78085937 128.41734375 -32.56171875 127.8346875 -32.3359375 127.234375 C-29.45209634 119.77859054 -29.45209634 119.77859054 -27.45336914 116.33642578 C-22.63934763 108.04345578 -22.49133413 101.53229798 -23.0625 92.125 C-23.48162131 81.66553482 -23.14504685 75.08678058 -17.4921875 66.1875 C-14.67299446 60.16534942 -16.0680971 53.79202384 -16.78027344 47.35400391 C-18.17724728 32.38775742 -17.86304856 19.92341461 -8 8 C-5.42572664 5.2280512 -2.77002972 2.5757679 0 0 Z " fill="#020267" transform="translate(311,104)"/>
<path d="M0 0 C7.64933569 -0.32270038 15.29467049 -0.557847 22.94921875 -0.71411133 C25.54920489 -0.77927267 28.14871849 -0.86783367 30.74707031 -0.98071289 C53.52138171 -1.94491266 53.52138171 -1.94491266 58.81347656 2.67041016 C61.53278404 5.78697725 63.24631101 9.26141931 65 13 C66.65 15.64 68.3 18.28 70 21 C46.9 21 23.8 21 0 21 C0 14.07 0 7.14 0 0 Z " fill="#FAFBFE" transform="translate(118,211)"/>
<path d="M0 0 C4.03143565 2.09037404 6.38569033 3.75496346 8 8 C8.1953125 10.796875 8.1953125 10.796875 8.125 13.75 C8.10695312 14.73484375 8.08890625 15.7196875 8.0703125 16.734375 C8.04710937 17.48203125 8.02390625 18.2296875 8 19 C8.78375 18.95875 9.5675 18.9175 10.375 18.875 C13 19 13 19 15 21 C15.25878906 23.67382813 15.25878906 23.67382813 15.265625 27.03125 C15.26949219 28.83529297 15.26949219 28.83529297 15.2734375 30.67578125 C15.26570313 31.93777344 15.25796875 33.19976562 15.25 34.5 C15.26160156 36.39298828 15.26160156 36.39298828 15.2734375 38.32421875 C15.27085937 39.52691406 15.26828125 40.72960937 15.265625 41.96875 C15.26336914 43.07669922 15.26111328 44.18464844 15.25878906 45.32617188 C15 48 15 48 13 50 C8.19081784 51.42423323 3.95080733 51.89672974 -1 51 C-4.49586449 47.82145244 -6.56217112 44.06863655 -8.81689453 39.98486328 C-11.35225414 35.73136067 -14.56811033 31.9063225 -17.63549805 28.02734375 C-19.0078125 26.21484375 -19.0078125 26.21484375 -21 23 C-20.62451172 20.79907227 -20.62451172 20.79907227 -20 19 C-18.35 19 -16.7 19 -15 19 C-15.04640625 18.27554688 -15.0928125 17.55109375 -15.140625 16.8046875 C-15.37046287 10.64831587 -15.31129905 6.80401894 -11 2 C-7.29137017 -0.47241989 -4.30094385 -0.66668695 0 0 Z " fill="#3263F9" transform="translate(167,152)"/>
<path d="M0 0 C1.258125 -0.020625 2.51625 -0.04125 3.8125 -0.0625 C4.52019531 -0.07410156 5.22789063 -0.08570313 5.95703125 -0.09765625 C9.15839295 0.05537251 10.73437327 0.73437327 13 3 C13.53908556 10.44836549 12.2446177 17.81780851 11.25 25.1875 C11.06956667 26.54919016 10.88947769 27.91092599 10.7097168 29.27270508 C10.24163191 32.80530862 9.76627744 36.33689092 9.28826904 39.86816406 C9.0022245 41.98354918 8.7179245 44.09916213 8.43408203 46.21484375 C7.89805188 50.20634879 7.35627363 54.197042 6.8125 58.1875 C6.56258301 60.0296106 6.56258301 60.0296106 6.30761719 61.90893555 C6.15067383 63.0462915 5.99373047 64.18364746 5.83203125 65.35546875 C5.69514893 66.35215576 5.5582666 67.34884277 5.41723633 68.37573242 C5 71 5 71 4 75 C-0.62 75 -5.24 75 -10 75 C-8.00004751 57.77741426 -5.74923538 40.60339659 -3.3125 23.4375 C-2.98869729 21.14261127 -2.66512874 18.84768949 -2.34179688 16.55273438 C-1.5638784 11.03477491 -0.78314117 5.51722053 0 0 Z " fill="#3163FB" transform="translate(38,217)"/>
<path d="M0 0 C13.86 0 27.72 0 42 0 C42 7.26 42 14.52 42 22 C27.48 22 12.96 22 -2 22 C-2 14 -2 14 0 0 Z " fill="#2F5FF5" transform="translate(78,270)"/>
<path d="M0 0 C11.6188325 1.86731237 17.32655053 10.27512614 23.99609375 19.20703125 C26 22 26 22 27 24 C41.98984932 25.99152712 41.98984932 25.99152712 55.640625 21.7734375 C58.15615081 19.09552049 58.15615081 19.09552049 60.0078125 16.1875 C62 14 62 14 65.7421875 13.6875 C66.81726563 13.790625 67.89234375 13.89375 69 14 C69.66 12.68 70.32 11.36 71 10 C73.31 10.33 75.62 10.66 78 11 C78.625 13.8125 78.625 13.8125 79 17 C78.01 18.485 78.01 18.485 77 20 C74 20.3125 74 20.3125 71 20 C70.01 19.01 70.01 19.01 69 18 C66.08238621 17.42142243 66.08238621 17.42142243 63 18 C60.93238524 20.17608132 60.93238524 20.17608132 59.0625 22.9375 C54.44411218 28.01414646 50.86806733 28.68642176 44.08374023 29.06079102 C39.38394219 29.15483704 34.69821336 29.16095405 30 29 C30.20496094 29.58007812 30.40992188 30.16015625 30.62109375 30.7578125 C33.25089057 38.38296501 34.18102006 45.21487633 34.1875 53.25 C34.19974609 54.0646875 34.21199219 54.879375 34.22460938 55.71875 C34.22981239 57.81383174 34.1229057 59.90851996 34 62 C33.34 62.66 32.68 63.32 32 64 C31.72027344 63.45472656 31.44054687 62.90945312 31.15234375 62.34765625 C27.7158061 55.88342948 23.77232634 49.49389273 18.359375 44.48046875 C14.47464738 40.2496878 14.86126934 32.41885571 14.5625 27 C13.99751387 18.11343847 12.48193085 11.33118827 6 5 C2.85011127 3.13076797 2.85011127 3.13076797 0 2 C0 1.34 0 0.68 0 0 Z M72 13 C72 14.32 72 15.64 72 17 C73.32 16.67 74.64 16.34 76 16 C75.67 15.01 75.34 14.02 75 13 C74.01 13 73.02 13 72 13 Z " fill="#040467" transform="translate(251,75)"/>
<path d="M0 0 C0.77417473 2.3225242 1.04901615 3.76669146 0.54052734 6.18701172 C-0.1153286 9.60018794 -0.16348081 12.84465383 -0.2109375 16.3203125 C-0.23902982 17.75782342 -0.26769441 19.19532326 -0.296875 20.6328125 C-0.3378607 22.87043656 -0.37479648 25.10785902 -0.40136719 27.34570312 C-0.51605435 36.25966427 -1.02255443 44.48941079 -4 53 C-4.66 53 -5.32 53 -6 53 C-6.25523437 53.59296875 -6.51046875 54.1859375 -6.7734375 54.796875 C-8.11816498 57.21224538 -9.49214367 58.51211706 -11.625 60.25 C-12.57246094 61.03117187 -12.57246094 61.03117187 -13.5390625 61.828125 C-14.02117187 62.21484375 -14.50328125 62.6015625 -15 63 C-20.15332117 24.07402047 -20.15332117 24.07402047 -10.01953125 10.44140625 C-6.92513924 6.70060354 -3.55284169 3.30368137 0 0 Z " fill="#FCFCFD" transform="translate(311,104)"/>
<path d="M0 0 C13.53 0 27.06 0 41 0 C41.66 4.95 42.32 9.9 43 15 C40.71368506 16.14315747 39.45652594 16.12112732 36.91748047 16.11352539 C35.65639969 16.11341209 35.65639969 16.11341209 34.36984253 16.11329651 C33.00727829 16.10555458 33.00727829 16.10555458 31.6171875 16.09765625 C30.68778351 16.0962413 29.75837952 16.09482635 28.80081177 16.09336853 C25.82550876 16.08776053 22.85028036 16.07520668 19.875 16.0625 C17.86067817 16.05748603 15.84635516 16.05292295 13.83203125 16.04882812 C8.88799198 16.0377885 3.94400865 16.02051849 -1 16 C-1.89462576 12.73699299 -1.99812882 10.25332854 -1.625 6.875 C-1.53476563 6.00617188 -1.44453125 5.13734375 -1.3515625 4.2421875 C-1 2 -1 2 0 0 Z " fill="#3365FD" transform="translate(143,270)"/>
<path d="M0 0 C11.88 0 23.76 0 36 0 C36 6.93 36 13.86 36 21 C17.51367621 22.52102664 17.51367621 22.52102664 13.10449219 19.85302734 C9.52929943 16.47044894 7.30812076 12.31841949 5 8 C2.525 4.04 2.525 4.04 0 0 Z " fill="#3264FB" transform="translate(173,211)"/>
<path d="M0 0 C-0.309375 0.763125 -0.61875 1.52625 -0.9375 2.3125 C-2.40924831 6.03515748 -3.11261093 8.76606652 -3.02734375 12.74609375 C-3.01509766 13.66583984 -3.00285156 14.58558594 -2.99023438 15.53320312 C-2.95514767 17.46557107 -2.91610078 19.39787127 -2.87304688 21.33007812 C-2.86208984 22.25111328 -2.85113281 23.17214844 -2.83984375 24.12109375 C-2.82300537 24.9608374 -2.80616699 25.80058105 -2.78881836 26.66577148 C-3.02394993 29.26472283 -3.57035344 30.82362647 -5 33 C-7.71484375 34.125 -7.71484375 34.125 -10.9375 35 C-15.34911127 36.15011841 -15.34911127 36.15011841 -18.828125 38.91015625 C-20.19607826 41.12486072 -20.19607826 41.12486072 -20.8125 44.4375 C-22.30758221 48.92274663 -24.11311587 50.38382799 -28 53 C-29.9867875 53.70506727 -31.98558919 54.37823354 -34 55 C-33.52949219 54.34515625 -33.05898438 53.6903125 -32.57421875 53.015625 C-27.88154045 46.13691644 -25.65868974 40.09830874 -24 32 C-21.44206705 21.02154242 -15.7065561 14.66524549 -8.25 6.5 C-7.67072754 5.86352539 -7.09145508 5.22705078 -6.49462891 4.57128906 C-2.23881615 0 -2.23881615 0 0 0 Z " fill="#000066" transform="translate(346,129)"/>
<path d="M0 0 C18.81 0 37.62 0 57 0 C56 12 56 12 55 16 C53.2675 15.4121875 53.2675 15.4121875 51.5 14.8125 C34.36087673 9.12653493 19.11735053 5.70683708 1 5 C0.67 3.35 0.34 1.7 0 0 Z " fill="#02046C" transform="translate(254,258)"/>
<path d="M0 0 C2.475 0.99 2.475 0.99 5 2 C5.26375412 9.50757253 4.25290177 16.75642714 3.25 24.1875 C3.06956667 25.54919016 2.88947769 26.91092599 2.7097168 28.27270508 C2.24163191 31.80530862 1.76627744 35.33689092 1.28826904 38.86816406 C1.0022245 40.98354918 0.7179245 43.09916213 0.43408203 45.21484375 C-0.10194812 49.20634879 -0.64372637 53.197042 -1.1875 57.1875 C-1.35411133 58.41557373 -1.52072266 59.64364746 -1.69238281 60.90893555 C-1.84932617 62.0462915 -2.00626953 63.18364746 -2.16796875 64.35546875 C-2.30485107 65.35215576 -2.4417334 66.34884277 -2.58276367 67.37573242 C-2.94167845 69.63317825 -3.40061685 71.79616453 -4 74 C-5.98 74 -7.96 74 -10 74 C-8.89726177 62.76948175 -7.37344384 51.64652593 -5.61132812 40.50097656 C-4.19676579 31.47459644 -2.94434992 22.43258185 -1.75 13.375 C-1.66123596 12.70190796 -1.57247192 12.02881592 -1.48101807 11.33532715 C-0.98369702 7.55735691 -0.49019324 3.77890129 0 0 Z " fill="#08096D" transform="translate(46,218)"/>
<path d="M0 0 C8.46537722 7.54236101 13.70949268 20.36913019 17 31 C17.33 31.99 17.66 32.98 18 34 C17.77813785 36.73629979 17.49256146 39.408864 17.125 42.125 C17.03347656 42.86621094 16.94195312 43.60742188 16.84765625 44.37109375 C16.13448661 49.86551339 16.13448661 49.86551339 15 51 C13.48071962 51.07179964 11.95832518 51.08392007 10.4375 51.0625 C9.61121094 51.05347656 8.78492188 51.04445312 7.93359375 51.03515625 C7.29550781 51.02355469 6.65742188 51.01195312 6 51 C5.98541748 50.23034912 5.97083496 49.46069824 5.95581055 48.66772461 C5.61113941 28.13852526 5.61113941 28.13852526 2 8 C1.68289063 6.67935547 1.68289063 6.67935547 1.359375 5.33203125 C0.92969846 3.54887362 0.47035137 1.77286284 0 0 Z " fill="#F4F4F8" transform="translate(258,193)"/>
<path d="M0 0 C6.49609906 -0.07597206 12.99208385 -0.12856672 19.48852539 -0.16479492 C21.69918092 -0.17989525 23.90980643 -0.20037709 26.12036133 -0.22631836 C29.29515993 -0.26264655 32.46956297 -0.27971384 35.64453125 -0.29296875 C36.63524124 -0.30845261 37.62595123 -0.32393646 38.64668274 -0.33988953 C39.56741074 -0.34011612 40.48813873 -0.34034271 41.43676758 -0.34057617 C42.2472908 -0.34723801 43.05781403 -0.35389984 43.89289856 -0.36076355 C46.51050098 0.0874045 47.28512028 1.0353175 49 3 C51.03077684 3.98628417 51.03077684 3.98628417 53.1875 4.6875 C53.90292969 4.93886719 54.61835938 5.19023437 55.35546875 5.44921875 C55.89816406 5.63097656 56.44085938 5.81273437 57 6 C57 6.33 57 6.66 57 7 C34.89 7 12.78 7 -10 7 C-10 6.34 -10 5.68 -10 5 C-9.36191406 4.80664062 -8.72382813 4.61328125 -8.06640625 4.4140625 C-7.24011719 4.15367187 -6.41382813 3.89328125 -5.5625 3.625 C-4.32693359 3.24214844 -4.32693359 3.24214844 -3.06640625 2.8515625 C-0.82201984 2.19117773 -0.82201984 2.19117773 0 0 Z " fill="#CACBE0" transform="translate(140,285)"/>
<path d="M0 0 C1.11375 0.556875 1.11375 0.556875 2.25 1.125 C2.25 1.785 2.25 2.445 2.25 3.125 C3.38846375 3.09835266 3.38846375 3.09835266 4.54992676 3.07116699 C11.72876365 2.91037264 18.90671879 2.78882632 26.08689117 2.71050262 C29.77778899 2.66887916 33.46719013 2.61250022 37.15722656 2.52148438 C40.72353129 2.43407843 44.28840391 2.38662941 47.85569763 2.36598206 C49.86786207 2.3441662 51.87945579 2.28178695 53.89074707 2.21862793 C62.99947716 2.21419172 62.99947716 2.21419172 66.72009277 4.92407227 C68.06696426 6.34259006 69.37243839 7.80205802 70.62463379 9.30480957 C72.2085638 11.37815041 72.2085638 11.37815041 75.17773438 12.125 C76.05751953 12.125 76.93730469 12.125 77.84375 12.125 C79.29394531 12.15400391 79.29394531 12.15400391 80.7734375 12.18359375 C81.75570312 12.16425781 82.73796875 12.14492187 83.75 12.125 C85.26980469 12.14240234 85.26980469 12.14240234 86.8203125 12.16015625 C89.29896682 12.18353978 91.77182747 12.17103416 94.25 12.125 C94.25 12.785 94.25 13.445 94.25 14.125 C90.22992472 14.32948678 86.21119536 14.45302689 82.1875 14.5625 C80.4869043 14.65047852 80.4869043 14.65047852 78.75195312 14.74023438 C77.64658203 14.76279297 76.54121094 14.78535156 75.40234375 14.80859375 C73.8862854 14.86358032 73.8862854 14.86358032 72.33959961 14.91967773 C68.82141432 14.01476323 68.43959042 13.33931118 66.22851562 10.63867188 C62.98523961 7.14975575 60.67191449 6.5532662 55.94750977 6.23852539 C53.44579929 6.19791345 50.9432903 6.19471222 48.44140625 6.22265625 C47.10617142 6.21326008 45.770955 6.20079543 44.43577576 6.18540955 C40.94197076 6.15330997 37.4494841 6.16257802 33.95562744 6.18078613 C30.38238339 6.19198019 26.8094704 6.16360608 23.23632812 6.13867188 C16.2407083 6.09563088 9.24568383 6.09633642 2.25 6.125 C1.92 7.115 1.59 8.105 1.25 9.125 C-1.0625 9.75 -1.0625 9.75 -3.75 10.125 C-4.74 9.465 -5.73 8.805 -6.75 8.125 C-6.9375 4.5 -6.9375 4.5 -6.75 1.125 C-4.02098495 -0.69434337 -3.21400584 -1.02263822 0 0 Z M-2.75 2.125 C-3.74 3.61 -3.74 3.61 -4.75 5.125 C-3.265 6.115 -3.265 6.115 -1.75 7.125 C-1.09 6.135 -0.43 5.145 0.25 4.125 C-0.74 3.465 -1.73 2.805 -2.75 2.125 Z " fill="#3266FF" transform="translate(43.75,72.875)"/>
<path d="M0 0 C0.33 0 0.66 0 1 0 C1.04898438 1.20398438 1.09796875 2.40796875 1.1484375 3.6484375 C1.22346343 5.22398198 1.29901133 6.79950166 1.375 8.375 C1.4059375 9.1690625 1.436875 9.963125 1.46875 10.78125 C1.51816421 15.36667375 1.51816421 15.36667375 4 19 C6.32275177 19.40047444 8.65739357 19.7397104 11 20 C10.69393651 23.29229866 10.37905797 26.58369514 10.0625 29.875 C9.93198242 31.28072266 9.93198242 31.28072266 9.79882812 32.71484375 C9.71181641 33.61074219 9.62480469 34.50664062 9.53515625 35.4296875 C9.456604 36.25710449 9.37805176 37.08452148 9.29711914 37.93701172 C9 40 9 40 8 42 C3.71 42 -0.58 42 -5 42 C-3.70397116 27.94189896 -2.00043932 13.97501295 0 0 Z " fill="#3564F8" transform="translate(60,250)"/>
<path d="M0 0 C4.72286486 4.3810194 8.40101414 9.36745723 12.1875 14.5625 C13.13012695 15.83770508 13.13012695 15.83770508 14.09179688 17.13867188 C19.14096329 24.0238988 19.14096329 24.0238988 21 28 C17.87507749 28.05791844 14.75029234 28.09356746 11.625 28.125 C10.73554688 28.14175781 9.84609375 28.15851563 8.9296875 28.17578125 C8.07890625 28.18222656 7.228125 28.18867188 6.3515625 28.1953125 C5.17327881 28.21102295 5.17327881 28.21102295 3.97119141 28.22705078 C2 28 2 28 0 26 C-0.22705078 23.38623047 -0.22705078 23.38623047 -0.1953125 20.1171875 C-0.18886719 18.95058594 -0.18242187 17.78398437 -0.17578125 16.58203125 C-0.15902344 15.35871094 -0.14226562 14.13539063 -0.125 12.875 C-0.11597656 11.64394531 -0.10695312 10.41289062 -0.09765625 9.14453125 C-0.07402548 6.09616185 -0.04108054 3.04817618 0 0 Z " fill="#F6F8FE" transform="translate(145,174)"/>
<path d="M0 0 C1.175625 0.0825 2.35125 0.165 3.5625 0.25 C5.5625 3.25 5.5625 3.25 5.1875 5.9375 C4.98125 6.700625 4.775 7.46375 4.5625 8.25 C3.5725 8.58 2.5825 8.91 1.5625 9.25 C1.5625 20.8 1.5625 32.35 1.5625 44.25 C3.2125 44.91 4.8625 45.57 6.5625 46.25 C8.85058594 47.43286133 8.85058594 47.43286133 10.5625 49.25 C11.01660156 52.4362793 11.01660156 52.4362793 10.953125 56.32421875 C10.94746521 57.0080513 10.94180542 57.69188385 10.93597412 58.3964386 C10.91360816 60.57750899 10.86341765 62.75692753 10.8125 64.9375 C10.792435 66.41729395 10.77418422 67.8971137 10.7578125 69.37695312 C10.71374474 73.0018376 10.64471822 76.62575756 10.5625 80.25 C9.5725 79.92 8.5825 79.59 7.5625 79.25 C7.57410156 78.43321777 7.58570313 77.61643555 7.59765625 76.77490234 C7.6272157 73.05727308 7.59546375 69.34257893 7.5625 65.625 C7.58183594 64.33980469 7.60117188 63.05460937 7.62109375 61.73046875 C7.56423607 58.07262481 7.43941209 54.80491052 6.5625 51.25 C4.77723537 49.57493063 4.77723537 49.57493063 2.53125 48.5 C0.34375 47.23193359 0.34375 47.23193359 -1.4375 45.25 C-2.49319174 39.11457724 -2.18999409 33.07420638 -1.9375 26.875 C-1.89734413 25.16805173 -1.860847 23.46101321 -1.828125 21.75390625 C-1.74023436 17.58370208 -1.60236216 13.41784213 -1.4375 9.25 C-2.4275 8.92 -3.4175 8.59 -4.4375 8.25 C-4.47991723 5.91705225 -4.47842937 3.58297433 -4.4375 1.25 C-3.4375 0.25 -3.4375 0.25 0 0 Z M-0.4375 2.25 C-0.7675 3.57 -1.0975 4.89 -1.4375 6.25 C-0.1175 6.25 1.2025 6.25 2.5625 6.25 C1.9025 4.93 1.2425 3.61 0.5625 2.25 C0.2325 2.25 -0.0975 2.25 -0.4375 2.25 Z " fill="#3162FE" transform="translate(158.4375,47.75)"/>
<path d="M0 0 C4.29 0 8.58 0 13 0 C13 7.26 13 14.52 13 22 C8.71 22 4.42 22 0 22 C0 14.74 0 7.48 0 0 Z " fill="#010269" transform="translate(107,270)"/>
<path d="M0 0 C3.125 -0.1875 3.125 -0.1875 6 0 C6.66 1.32 7.32 2.64 8 4 C30.44 4 52.88 4 76 4 C76 4.99 76 5.98 76 7 C75.15253204 7.00808685 74.30506409 7.01617371 73.43191528 7.02450562 C65.45625559 7.10235572 57.4807669 7.18961699 49.50532722 7.28752708 C45.40479051 7.33753305 41.3042801 7.38386246 37.20361328 7.421875 C33.24831801 7.45867383 29.29324055 7.50501856 25.33813095 7.55806351 C23.82705368 7.57663632 22.31592967 7.59173356 20.80478287 7.60334396 C18.69270638 7.62015753 16.58113192 7.64917921 14.46923828 7.68115234 C12.66388107 7.70113785 12.66388107 7.70113785 10.822052 7.7215271 C7.86507125 7.71209485 7.86507125 7.71209485 6 10 C2.375 9.625 2.375 9.625 -1 9 C-1.625 6.1875 -1.625 6.1875 -2 3 C-1.34 2.01 -0.68 1.02 0 0 Z M2 3 C2 4.32 2 5.64 2 7 C2.99 7 3.98 7 5 7 C5 5.68 5 4.36 5 3 C4.01 3 3.02 3 2 3 Z " fill="#3365FF" transform="translate(78,110)"/>
<path d="M0 0 C13.53 0 27.06 0 41 0 C41.9681648 3.8726592 42.07622858 7.03611362 42 11 C36.9616916 10.10097099 32.21160991 8.51498556 27.3515625 6.9375 C21.30527411 5.24623052 15.50988786 4.86242994 9.25 4.875 C7.95578125 4.87242187 6.6615625 4.86984375 5.328125 4.8671875 C2.00001449 4.84546843 2.00001449 4.84546843 -1 6 C-0.67 4.02 -0.34 2.04 0 0 Z " fill="#02046B" transform="translate(143,270)"/>
<path d="M0 0 C15.12203166 12.34451564 15.12203166 12.34451564 16.30078125 19.9375 C16.33857118 26.58852762 14.81171559 32.62664336 13 39 C10.54147311 36.54147311 10.00923768 34.54489944 8.90625 31.25 C8.32037109 29.50009766 8.32037109 29.50009766 7.72265625 27.71484375 C7.31917969 26.48894531 6.91570312 25.26304687 6.5 24 C6.09652344 22.80503906 5.69304687 21.61007813 5.27734375 20.37890625 C3.04118522 13.64091042 1.15474012 7.00919178 0 0 Z " fill="#F2F2F7" transform="translate(243,147)"/>
<path d="M0 0 C3.3 0 6.6 0 10 0 C10 7.26 10 14.52 10 22 C6.04 22 2.08 22 -2 22 C-2.29883729 14.52906777 -1.15925507 7.36955011 0 0 Z " fill="#040468" transform="translate(78,270)"/>
<path d="M0 0 C2.31 0.33 4.62 0.66 7 1 C7.625 3.8125 7.625 3.8125 8 7 C7.34 7.99 6.68 8.98 6 10 C3 10.3125 3 10.3125 0 10 C-0.66 9.34 -1.32 8.68 -2 8 C-4.92290218 7.41626741 -4.92290218 7.41626741 -8 8 C-9.99423714 10.2179087 -9.99423714 10.2179087 -11.8125 13 C-15.77389061 17.37416382 -18.29928401 18.32378463 -24.20703125 18.6640625 C-30.48384706 18.73565946 -36.74114213 18.46494373 -43 18 C-43.33 17.01 -43.66 16.02 -44 15 C-42.94256592 15.03311279 -42.94256592 15.03311279 -41.86376953 15.06689453 C-27.92100127 16.1535034 -27.92100127 16.1535034 -15.359375 11.70703125 C-12.84813817 9.03413009 -12.84813817 9.03413009 -10.9921875 6.15234375 C-9 4 -9 4 -5.2578125 3.69140625 C-4.18273437 3.79324219 -3.10765625 3.89507812 -2 4 C-1.34 2.68 -0.68 1.36 0 0 Z M1 3 C1 4.32 1 5.64 1 7 C2.32 6.67 3.64 6.34 5 6 C4.67 5.01 4.34 4.02 4 3 C3.01 3 2.02 3 1 3 Z " fill="#3265FE" transform="translate(322,85)"/>
<path d="M0 0 C2.171875 1.140625 2.171875 1.140625 4 3 C4.54287502 7.05527638 4.17669783 10.89177545 4 15 C-0.62 15 -5.24 15 -10 15 C-10.48556876 4.80305603 -10.48556876 4.80305603 -8.375 1.3125 C-5.2932166 -0.39059083 -3.47515996 -0.50679416 0 0 Z " fill="#010269" transform="translate(166,156)"/>
<path d="M0 0 C3 0.25 3 0.25 5 2.25 C4.75 5.8125 4.75 5.8125 4 9.25 C3.01 9.745 3.01 9.745 2 10.25 C1.67 24.44 1.34 38.63 1 53.25 C0.34 53.25 -0.32 53.25 -1 53.25 C-1.01458252 51.96311279 -1.02916504 50.67622559 -1.04418945 49.3503418 C-1.10211148 44.5810145 -1.17934463 39.81216238 -1.26245117 35.04321289 C-1.29572924 32.9781871 -1.32375214 30.91306973 -1.34643555 28.84790039 C-1.37992855 25.88127568 -1.43224145 22.91549252 -1.48828125 19.94921875 C-1.49786613 18.56158577 -1.49786613 18.56158577 -1.50764465 17.1459198 C-1.52743881 16.28525406 -1.54723297 15.42458832 -1.56762695 14.5378418 C-1.57873001 13.78061325 -1.58983307 13.0233847 -1.60127258 12.24320984 C-2.10121052 9.74405583 -3.17046566 8.95653415 -5 7.25 C-5.3125 4.6875 -5.3125 4.6875 -5 2.25 C-3 0.25 -3 0.25 0 0 Z M-2 3.25 C-1.67 4.57 -1.34 5.89 -1 7.25 C-0.01 6.92 0.98 6.59 2 6.25 C2 5.26 2 4.27 2 3.25 C0.68 3.25 -0.64 3.25 -2 3.25 Z " fill="#3265FE" transform="translate(199,74.75)"/>
<path d="M0 0 C8.92453624 8.63767615 19.30053115 19.93488376 20.29296875 32.796875 C20.3101313 36.21565411 20.22405987 39.58931085 20 43 C18.43317237 39.97926925 17.13689631 36.90915301 15.875 33.75 C11.58399121 23.37794622 6.49389487 13.28236033 0.8125 3.6015625 C0 2 0 2 0 0 Z " fill="#F4F4F8" transform="translate(222,100)"/>
<path d="M0 0 C2.31 0 4.62 0 7 0 C7 7.26 7 14.52 7 22 C4.69 22 2.38 22 0 22 C0 14.74 0 7.48 0 0 Z " fill="#3366FF" transform="translate(100,270)"/>
<path d="M0 0 C0.77759136 2.33277407 1.04413541 3.78389112 0.54711914 6.2175293 C-0.08882046 9.45171209 -0.21481083 12.53743691 -0.31640625 15.83203125 C-0.35830078 17.12431641 -0.40019531 18.41660156 -0.44335938 19.74804688 C-0.48316352 21.10286192 -0.52287591 22.45767967 -0.5625 23.8125 C-0.60573723 25.18686105 -0.64935312 26.56121024 -0.69335938 27.93554688 C-0.7992979 31.29026669 -0.90137189 34.6450586 -1 38 C-5.29666493 33.70333507 -7.47563552 26.57039182 -8.34765625 20.6328125 C-7.99883919 13.23789087 -3.46424119 6.35864637 0 0 Z " fill="#0E0E6E" transform="translate(311,104)"/>
<path d="M0 0 C3 0.25 3 0.25 5 2.25 C4.75 5.8125 4.75 5.8125 4 9.25 C3.01 9.745 3.01 9.745 2 10.25 C1.95225121 12.2285906 1.96305584 14.20867817 2 16.1875 C1.68754284 22.21061045 0.23120483 24.84730173 -4.0625 29.0625 C-5.68080932 30.49015297 -7.31813794 31.89779511 -9 33.25 C-9.66 31.93 -10.32 30.61 -11 29.25 C-10.02546875 28.44949219 -10.02546875 28.44949219 -9.03125 27.6328125 C-4.02739597 23.31998347 -4.02739597 23.31998347 -1.296875 17.49609375 C-1.25138441 14.89175765 -1.26252728 12.75078889 -2 10.25 C-2.99 9.59 -3.98 8.93 -5 8.25 C-5.3125 5.25 -5.3125 5.25 -5 2.25 C-3 0.25 -3 0.25 0 0 Z M-2 3.25 C-1.67 4.57 -1.34 5.89 -1 7.25 C-0.01 6.92 0.98 6.59 2 6.25 C2 5.26 2 4.27 2 3.25 C0.68 3.25 -0.64 3.25 -2 3.25 Z " fill="#3165FE" transform="translate(250,44.75)"/>
<path d="M0 0 C1.11375 0.3403125 1.11375 0.3403125 2.25 0.6875 C2.58 1.6775 2.91 2.6675 3.25 3.6875 C10.84 3.6875 18.43 3.6875 26.25 3.6875 C26.25 4.6775 26.25 5.6675 26.25 6.6875 C18.66 6.6875 11.07 6.6875 3.25 6.6875 C2.92 7.6775 2.59 8.6675 2.25 9.6875 C-0.13573912 10.75696926 -1.40402883 10.77646402 -3.9375 10.125 C-5.75 8.6875 -5.75 8.6875 -6.5 5.5625 C-6.5825 4.61375 -6.665 3.665 -6.75 2.6875 C-4.29511132 0.41445492 -3.41240272 -0.38777304 0 0 Z M-3.75 3.6875 C-3.09 5.0075 -2.43 6.3275 -1.75 7.6875 C-1.09 7.3575 -0.43 7.0275 0.25 6.6875 C-0.08 5.3675 -0.41 4.0475 -0.75 2.6875 C-1.9736068 2.6129644 -1.9736068 2.6129644 -3.75 3.6875 Z " fill="#3063FD" transform="translate(34.75,156.3125)"/>
<path d="M0 0 C1.98 0 3.96 0 6 0 C5.69393651 3.29229866 5.37905797 6.58369514 5.0625 9.875 C4.97548828 10.81214844 4.88847656 11.74929688 4.79882812 12.71484375 C4.71181641 13.61074219 4.62480469 14.50664062 4.53515625 15.4296875 C4.456604 16.25710449 4.37805176 17.08452148 4.29711914 17.93701172 C4 20 4 20 3 22 C1.35 22 -0.3 22 -2 22 C-2.25515919 14.47280398 -1.28297723 7.41148455 0 0 Z " fill="#07086D" transform="translate(65,270)"/>
<path d="M0 0 C0.763125 0.0825 1.52625 0.165 2.3125 0.25 C2.9725 1.57 3.6325 2.89 4.3125 4.25 C10.5825 4.25 16.8525 4.25 23.3125 4.25 C23.3125 4.91 23.3125 5.57 23.3125 6.25 C17.0425 6.25 10.7725 6.25 4.3125 6.25 C3.6525 7.57 2.9925 8.89 2.3125 10.25 C0.0025 9.92 -2.3075 9.59 -4.6875 9.25 C-5.60804342 6.23731243 -5.96611489 4.82270838 -4.5625 1.9375 C-2.6875 0.25 -2.6875 0.25 0 0 Z M-1.6875 3.25 C-1.6875 4.57 -1.6875 5.89 -1.6875 7.25 C-0.3675 6.92 0.9525 6.59 2.3125 6.25 C1.9825 5.26 1.6525 4.27 1.3125 3.25 C0.3225 3.25 -0.6675 3.25 -1.6875 3.25 Z " fill="#3164FE" transform="translate(37.6875,195.75)"/>
<path d="M0 0 C1.32 0 2.64 0 4 0 C4 7.26 4 14.52 4 22 C2.68 22 1.36 22 0 22 C0 14.74 0 7.48 0 0 Z " fill="#02056D" transform="translate(96,270)"/>
<path d="M0 0 C-1.22976563 1.10408203 -1.22976563 1.10408203 -2.484375 2.23046875 C-3.57309539 3.21594842 -4.66162706 4.20163661 -5.75 5.1875 C-6.55824219 5.91163086 -6.55824219 5.91163086 -7.3828125 6.65039062 C-10.58712091 9.56162205 -13.3841879 12.52706501 -16 16 C-16.66 15.67 -17.32 15.34 -18 15 C-17.34 14.01 -16.68 13.02 -16 12 C-15.5359375 10.2675 -15.5359375 10.2675 -15.0625 8.5 C-14.01689868 5.05566623 -13.66265456 4.1543296 -11 2 C-8.80859375 1.015625 -8.80859375 1.015625 -6.4375 0.25 C-5.65246094 -0.01296875 -4.86742187 -0.2759375 -4.05859375 -0.546875 C-2 -1 -2 -1 0 0 Z " fill="#2F5FF4" transform="translate(340,163)"/>
<path d="M0 0 C3.18852377 2.7102452 5.49887016 6.10997537 7 10 C6.875 13.375 6.875 13.375 6 17 C5.64455933 18.64555866 5.29041996 20.29139888 4.9375 21.9375 C4.62764351 23.29227399 4.3160849 24.64666562 4 26 C3.67 26 3.34 26 3 26 C2.91697632 25.13834229 2.91697632 25.13834229 2.83227539 24.25927734 C2.5778124 21.63097381 2.32018189 19.00298982 2.0625 16.375 C1.93198242 15.01955078 1.93198242 15.01955078 1.79882812 13.63671875 C1.34748614 9.05643346 0.8352958 4.5301628 0 0 Z " fill="#EFEFF5" transform="translate(264,89)"/>
<path d="M0 0 C0.99 0 1.98 0 3 0 C3 0.99 3 1.98 3 3 C3.99 2.67 4.98 2.34 6 2 C5.814375 2.598125 5.62875 3.19625 5.4375 3.8125 C4.77906313 6.16408762 4.77906313 6.16408762 6 9 C4.68 8.67 3.36 8.34 2 8 C2 8.99 2 9.98 2 11 C1.34 11 0.68 11 0 11 C-0.33 10.34 -0.66 9.68 -1 9 C-1.99 9 -2.98 9 -4 9 C-4 8.34 -4 7.68 -4 7 C-3.34 7 -2.68 7 -2 7 C-2.66 5.68 -3.32 4.36 -4 3 C-3.34 2.67 -2.68 2.34 -2 2 C-1.34 2.33 -0.68 2.66 0 3 C0 2.01 0 1.02 0 0 Z " fill="#5680FF" transform="translate(171,217)"/>
<path d="M0 0 C0.99 0 1.98 0 3 0 C3 0.99 3 1.98 3 3 C3.99 2.67 4.98 2.34 6 2 C5.814375 2.598125 5.62875 3.19625 5.4375 3.8125 C4.77906313 6.16408762 4.77906313 6.16408762 6 9 C5.34 9 4.68 9 4 9 C3.67 9.66 3.34 10.32 3 11 C2.01 11 1.02 11 0 11 C-0.33 10.34 -0.66 9.68 -1 9 C-1.66 9 -2.32 9 -3 9 C-3 5 -3 5 -2 2 C-1.34 2.33 -0.68 2.66 0 3 C0 2.01 0 1.02 0 0 Z " fill="#5781FF" transform="translate(153,217)"/>
<path d="M0 0 C0.99 0 1.98 0 3 0 C3 0.99 3 1.98 3 3 C3.99 2.67 4.98 2.34 6 2 C6 2.99 6 3.98 6 5 C5.67 5.33 5.34 5.66 5 6 C5.66 6.33 6.32 6.66 7 7 C7 7.66 7 8.32 7 9 C6.01 9 5.02 9 4 9 C3.67 9.66 3.34 10.32 3 11 C2.34 11 1.68 11 1 11 C1 10.01 1 9.02 1 8 C-0.32 8.33 -1.64 8.66 -3 9 C-3 7 -3 5 -3 3 C-2.01 3 -1.02 3 0 3 C0 2.01 0 1.02 0 0 Z " fill="#557FFF" transform="translate(135,217)"/>
<path d="M0 0 C0.66 0 1.32 0 2 0 C2.33 0.66 2.66 1.32 3 2 C3.99 2 4.98 2 6 2 C6 4 6 6 6 8 C4.68 7.67 3.36 7.34 2 7 C2 7.99 2 8.98 2 10 C1.34 10 0.68 10 0 10 C-0.33 9.34 -0.66 8.68 -1 8 C-1.99 8 -2.98 8 -4 8 C-3.814375 7.38125 -3.62875 6.7625 -3.4375 6.125 C-2.76313824 3.95839822 -2.76313824 3.95839822 -4 2 C-3.01 2 -2.02 2 -1 2 C-0.67 1.34 -0.34 0.68 0 0 Z " fill="#040974" transform="translate(189,218)"/>
<path d="M0 0 C-0.37125 0.9075 -0.7425 1.815 -1.125 2.75 C-2.30359299 5.88097015 -2.30359299 5.88097015 -1.125 8.375 C-0.75375 8.91125 -0.3825 9.4475 0 10 C-2.62187494 8.95125002 -3.79371361 8.35068687 -5.25 5.875 C-5.4975 5.25625 -5.745 4.6375 -6 4 C-2.25 0 -2.25 0 0 0 Z " fill="#DBE4FF" transform="translate(83,183)"/>
<path d="M0 0 C2.97 1.98 2.97 1.98 6 4 C4.60667426 7.36720387 3.0210714 8.9859524 0 11 C0 8 0 8 1.125 6.0625 C2.29248036 3.97761146 2.29248036 3.97761146 1.125 1.75 C0.75375 1.1725 0.3825 0.595 0 0 Z " fill="#2B56E7" transform="translate(245,183)"/>
<path d="M0 0 C1.10844919 3.32534757 0.84454356 5.62182575 0 9 C-1.32 9.33 -2.64 9.66 -4 10 C-2.8905928 6.51329166 -1.73662334 3.22515763 0 0 Z " fill="#1E1E77" transform="translate(311,104)"/>
<path d="M0 0 C1.98 0.495 1.98 0.495 4 1 C4 1.99 4 2.98 4 4 C2.35 4 0.7 4 -1 4 C-0.67 2.68 -0.34 1.36 0 0 Z " fill="#E6ECFF" transform="translate(95,145)"/>
<path d="M0 0 C1.98 0.495 1.98 0.495 4 1 C4 1.99 4 2.98 4 4 C2.35 3.67 0.7 3.34 -1 3 C-0.67 2.01 -0.34 1.02 0 0 Z " fill="#EDF1FF" transform="translate(87,145)"/>
<path d="M0 0 C1.98 0.495 1.98 0.495 4 1 C4 1.99 4 2.98 4 4 C2.35 3.67 0.7 3.34 -1 3 C-0.67 2.01 -0.34 1.02 0 0 Z " fill="#EDF1FF" transform="translate(79,145)"/>
</svg>
